# xmcd
#
# Track frame offsets:
#	150
#	14356
#	26297
#	40680
#	57830
#	72841
#	90407
#	104299
#	119713
#	134414
#	150820
#	167977
#	183906
#	198498
#	209216
#	221940
#
# Disc length: 3167 seconds
#
# Revision: 0
# Processed by: cddbd v1.5.2PL0 Copyright (c) Steve Scherf et al.
# Submitted via: dBpowerAMP V4.0
#
DISCID=e20c5d10
DTITLE=Various Artist - Nuestras Coplas Vol. 3
DYEAR=1900
DGENRE=Folklore
TTITLE0=Ay, mi sombrero - Pepe Blanco
TTITLE1=El macetero - Antonio Molina
TTITLE2=Lagartijera - Carmen Sevilla
TTITLE3=Romance de La Otra - Concha Piquer
TTITLE4=Milonga de Juan Simón - Angelillo
TTITLE5=Ojos Verdes - Miguel de Molina
TTITLE6=Niña Isabel - Gracia de Triana
TTITLE7=Échale guindas al pavo - Imperio Argentina
TTITLE8=Triniá - Miguel de Molina
TTITLE9=La loba - Marifé de Triana
TTITLE10=Sendas del viento - Rafael Farina
TTITLE11=Juan Salvador - Pepe Baldó
TTITLE12=Manolo de mis amores - Estrellita de Palma
TTITLE13=Sortija de oro - Antoñita Moreno
TTITLE14=Me debes un beso - Pepe Blanco y Carmen Morell
TTITLE15=Glosa a la soleá - Pepe Pinto
EXTD=
EXTT0=
EXTT1=
EXTT2=
EXTT3=
EXTT4=
EXTT5=
EXTT6=
EXTT7=
EXTT8=
EXTT9=
EXTT10=
EXTT11=
EXTT12=
EXTT13=
EXTT14=
EXTT15=
PLAYORDER=
